<svg width="169" height="64" viewBox="0 0 169 64" fill="none" xmlns="http://www.w3.org/2000/svg">
<path d="M33.5721 43.0005V9.26383C33.5721 7.30685 30.9369 6.67947 30.0551 8.42651L7.53088 53.0499C6.73028 54.636 8.39871 56.3334 9.99836 55.5602L32.5225 44.6735C33.1643 44.3633 33.5721 43.7133 33.5721 43.0005Z" fill="url(#paint0_angular_0_174)"/>
<path d="M36.8039 43V9.26334C36.8039 7.30636 39.4391 6.67898 40.3209 8.42602L62.8451 53.0494C63.6457 54.6355 61.9773 56.3329 60.3776 55.5598L37.8534 44.673C37.2116 44.3628 36.8039 43.7128 36.8039 43Z" fill="url(#paint1_angular_0_174)"/>
<path d="M143.74 45.1253V29.202H138.328V25.7899H143.74V21.5542C143.74 20.3776 144.093 19.4363 144.799 18.7303C145.505 18.0244 146.447 17.6714 147.623 17.6714H152.33V21.0835H148.917C148.159 21.0835 147.78 21.4757 147.78 22.2601V25.7899H156.448V29.202H147.78V45.1253H143.74ZM156.448 45.1253V25.7899H160.487V45.1253H156.448ZM158.487 23.2798C157.703 23.2798 157.036 23.0314 156.487 22.5346C155.964 22.0117 155.703 21.345 155.703 20.5344C155.703 19.6977 155.964 19.031 156.487 18.5342C157.036 18.0374 157.703 17.789 158.487 17.789C159.272 17.789 159.925 18.0374 160.448 18.5342C160.997 19.031 161.272 19.6977 161.272 20.5344C161.272 21.345 160.997 22.0117 160.448 22.5346C159.925 23.0314 159.272 23.2798 158.487 23.2798Z" fill="#0C0048"/>
<path d="M131.182 45.1253V25.7899H135.221V45.1253H131.182ZM133.221 23.1622C132.437 23.1622 131.77 22.9138 131.221 22.417C130.698 21.8941 130.437 21.2273 130.437 20.4168C130.437 19.6062 130.698 18.9526 131.221 18.4558C131.77 17.9329 132.437 17.6714 133.221 17.6714C134.032 17.6714 134.698 17.9329 135.221 18.4558C135.744 18.9526 136.006 19.6062 136.006 20.4168C136.006 21.2273 135.744 21.8941 135.221 22.417C134.698 22.9138 134.032 23.1622 133.221 23.1622Z" fill="#0C0048"/>
<path d="M108.021 45.1238V25.7884H111.982V28.6906H112.609C112.975 27.9062 113.629 27.1741 114.57 26.4943C115.511 25.8145 116.91 25.4746 118.767 25.4746C120.231 25.4746 121.525 25.8014 122.65 26.4551C123.8 27.1088 124.702 28.037 125.356 29.2397C126.009 30.4163 126.336 31.8413 126.336 33.5147V45.1238H122.297V33.8284C122.297 32.1551 121.878 30.9262 121.041 30.1418C120.205 29.3312 119.054 28.926 117.59 28.926C115.917 28.926 114.57 29.475 113.551 30.5732C112.557 31.6713 112.06 33.2663 112.06 35.358V45.1238H108.021Z" fill="#0C0048"/>
<path d="M93.8198 45.1218V25.7864H97.781V28.0612H98.4085C98.7223 27.2507 99.2191 26.6624 99.8989 26.2963C100.605 25.9041 101.468 25.708 102.487 25.708H104.801V29.3555H102.331C101.023 29.3555 99.9512 29.7215 99.1145 30.4536C98.2778 31.1596 97.8595 32.2577 97.8595 33.7481V45.1218H93.8198Z" fill="#0C0048"/>
<path d="M67.8501 45.1253L75.6941 17.6714H83.1458L90.9506 45.1253H86.5972L84.7931 38.654H74.0468L72.2427 45.1253H67.8501ZM75.1058 34.732H83.7341L79.7337 20.2991H79.1062L75.1058 34.732Z" fill="#0C0048"/>
<defs>
<radialGradient id="paint0_angular_0_174" cx="0" cy="0" r="1" gradientUnits="userSpaceOnUse" gradientTransform="translate(25.8952 34.7966) rotate(131.785) scale(29.1852 27.3976)">
<stop offset="0.0001" stop-color="#3591E3"/>
<stop offset="0.0002" stop-color="#0753FC"/>
<stop offset="0.182292" stop-color="#0753FC"/>
<stop offset="1" stop-color="#00D1CD"/>
</radialGradient>
<radialGradient id="paint1_angular_0_174" cx="0" cy="0" r="1" gradientUnits="userSpaceOnUse" gradientTransform="translate(44.4808 34.7961) rotate(48.2155) scale(29.1852 27.3976)">
<stop offset="0.0001" stop-color="#3591E3"/>
<stop offset="0.0002" stop-color="#0753FC"/>
<stop offset="0.182292" stop-color="#0753FC"/>
<stop offset="1" stop-color="#00D1CD"/>
</radialGradient>
</defs>
</svg>
